<svg xmlns="http://www.w3.org/2000/svg" version="1.1" xmlns:xlink="http://www.w3.org/1999/xlink" viewBox="0 0 200 200"><rect width="200" height="200" fill="url('#gradient')"></rect><defs><linearGradient id="gradient" gradientTransform="rotate(45 0.5 0.5)"><stop offset="0%" stop-color="#472027"></stop><stop offset="100%" stop-color="#192025"></stop></linearGradient></defs><g><g fill="#f3bd7d" transform="matrix(7.635459817729909,0,0,7.635459817729909,10.242352034918213,153.52629042698908)" stroke="#c06a3e" stroke-width="0.2"><path d="M9.98 0L9.15-2.66L4.45-2.66L3.63 0L-0.03 0L5.19-14.22L8.41-14.22L13.66 0L9.98 0ZM6.80-10.23L5.27-5.30L8.33-5.30L6.80-10.23ZM19.01-2.34L19.01-2.34Q19.71-2.34 20.09-2.72Q20.47-3.10 20.46-3.77L20.46-3.77L23.54-3.77Q23.54-2.03 22.30-0.92Q21.05 0.20 19.09 0.20L19.09 0.20Q16.79 0.20 15.46-1.25Q14.13-2.70 14.13-5.25L14.13-5.25L14.13-5.39Q14.13-6.99 14.72-8.22Q15.31-9.44 16.43-10.10Q17.54-10.76 19.06-10.76L19.06-10.76Q21.12-10.76 22.33-9.62Q23.54-8.48 23.54-6.52L23.54-6.52L20.46-6.52Q20.46-7.34 20.06-7.78Q19.66-8.22 18.98-8.22L18.98-8.22Q17.71-8.22 17.49-6.59L17.49-6.59Q17.42-6.07 17.42-5.17L17.42-5.17Q17.42-3.57 17.80-2.96Q18.18-2.34 19.01-2.34Z"></path></g></g></svg>